<?xml version="1.0" encoding="utf-8"?>
<!-- Generator: Adobe Illustrator 23.1.1, SVG Export Plug-In . SVG Version: 6.00 Build 0)  -->
<svg version="1.1" id="Layer_1" xmlns="http://www.w3.org/2000/svg" xmlns:xlink="http://www.w3.org/1999/xlink" x="0px" y="0px"
	 viewBox="0 0 389.9 128.8" style="enable-background:new 0 0 389.9 128.8;" xml:space="preserve">
<style type="text/css">
	.st0{fill:#FFFFFF;}
	.st1{display:none;}
	.st2{display:inline;}
</style>
<g id="Background_xA0_Image_1_">
</g>
<image style="display:none;overflow:visible;enable-background:new    ;" width="2100" height="850" id="Geographics_2_xA0_Image" xlink:href="F880EA53D843F48F.png"  transform="matrix(0.2377 0 0 0.2377 -65.0729 -24.3254)">
</image>
<g>
	<path class="st0" d="M386.2,44.5c-2.5-0.3-12,6.4-12.8,7.5c-0.7,1-19.2,13.2-23.6,15.5c0,0,0,0,0,0c1.1-1.2,2-10.3,2-11.7
		c-0.3-0.1,3.9-2.6,4.1-6.2c0.2-3.6-5.6-6.6-6.4-6.2c-0.5,0.3-16.5,15-19.1,16.4c0,0,0,0,0,0c0,0,0,0,0,0s-12.1,8.9-13.4,9
		c-3.7,1.7-8.4,1.7-10.5-2.5c-2.1-4.2,3.3-7.3,4.8-8.7c1.5-1.5,2.3,0.9,2.3,0.9s0.5,4.1,5.6,2.6c7-8.5,0.7-12.7-1.9-13.7
		S307,48.2,304,52.6c-3,4.4-14.6,19.6-17.7,17.2c-3-2.4,0-10.1,0.6-11.2c0.6-1.1,5.3-1.7,4.8-6.9c-0.5-5.2-3.9-4.2-5.6-3.6
		c-1.7,0.6-8.6,9-8.8,9.3c-0.3,0.1-12.4,8.1-11.9,8c0.1,0-0.2,0.1-0.7,0.2c0.3-0.6,0.5-1,0.5-1.2c0.7-1.7,3.9-6.4,3.7-7.7
		c1.8-6,0.8-9.5-3.2-11.8s-7.8-3.8-13.2,2.1c-0.6,0.7,0.9-2.8-2.7-2.6c-1.5,0.1-12.6,14.7-17.1,17.6c0,0-0.1,0-0.1,0
		c-8.5,5.8-10.9,5.4-11.4,5.2c-1.5-0.5-1.2-1.9-1.8-3.2c0,0,0,0,0,0c2.2-2.3,4.1-4.5,5.1-6.1c2.9-4.8-1.5-9.7-1.9-10.5
		c-2.2-4.4-7-4.8-9.6-4.1c-2.6,0.7-20.2,17-19.9,16.9c0.6-0.1-11.3,12.4-13.5,8.1c-0.8-1.8,0.1-2.5,0.7-4c0.7-1.5,1.4-2.8,4.1-2.4
		c1.3,0.4,2-3.2,2.2-3.9c1.8-7-7-9.1-6.6-9.6c2.8-3.3,5.4-6.5,5.6-7.3c0.5-1.8-2.1-6.8-8.1-5.8c-0.7-0.6-9.3,15.4-9.7,16.1
		c-1,2.4-19,18.7-17.5,17.6c0.7-0.5-2.3,2.4-6.7,6.7c0.1-0.5,0.2-0.8,0.3-0.9c0.5-0.2,3.2-6.8,5.7-13.4c3.5-4.4,6.3-8.6,6.1-9.9
		c-1.7-8.5-5.7-11.7-11.9-12.4c-6.2-0.7-13,4.7-12.8,4.4c0.5-1-16.7,6-17,5.6c0,0,0,0,0,0c0,0,0,0,0,0c1-3.7-5.4-5.6-6-5.8
		c-5.5-2.1-9.5-0.8-12.5,1.4c-1.8,0.4-9.8,10.5-10.7,11.6c-6,6.8-10.1,10.9-10.1,10.9c-4,2.3-10.6,7-11.8,2.2
		c4.7-3.6,10.8-7.9,11.7-9.6c1.3-2.7,5.2-10.9-1.7-13.8c-6.8-2.9-12.1,1.6-15.7,11.4c-1.3,3.5-1.9,6.8-1.8,9.7
		c-5.4,3-13.5,7.1-19.1,10.3c1-5,2-8.8,3.6-12c3.8-7.6,10.4-19,11.5-20.8c1.1-1.8-6.3-8-9-3.2c-2.8,4.8-14.8,25.2-22.9,25.7
		c-8.1,0.5-16.9-8.6-12.2-21.8c1.7-4.7,4-9.6,6.8-14.4c3.8,2.1,10.4,4.2,21.6,3.9c8.3-0.2,20.4-5.3,22.7-16s0.3-20.5-19.1-19
		c-8.4,0.7-19.2,8.9-27.4,20.3c-0.3-0.7-0.5-1.5-0.7-2.2c-0.8-3.7-1.3-10.8,0.3-14.8c0.7-1.7-4.4-3.7-5.2-2.9c0,0-1.9,6.7-1.1,14
		c0.5,4.9,1.7,8.6,3.2,11.2C0.7,38.6-4.2,56.9,5,67.1c9.8,10.8,21.6,6.5,26.1,1.9c-0.9,3.8-1.6,9-2.4,14.7
		c-5.4,5.7-15.8,17.8-18.1,25.6c-2.8,9.1-2,18.7,3.6,19.4c5.7,0.7,12.7,0.6,17-21.5c1.5-7.5,2.5-13.7,3.4-19.1
		c2.4-2.4,4.9-4.4,7.3-5.6c7.9-4.2,13.7-4.9,15.8-7.9c1.1,1.4,2.5,2.3,4.3,2.7c6.6,1.4,13.7-0.8,16.8-3.6l7-5.8c0,0,0,0,0-0.1
		c1.5,4.2,4,7.8,7.8,7.4c9.5-1,14.8-9.6,17.6-16.7c0.1,0.1,0.1,0,0.1-0.1c-0.1-1,14.5-4.9,16.3-6.1c-1.5,1.7-5.2,8.1-6.7,16.4
		c-0.6,13.1,14.5,5.7,15.4,5.9c0,0,0,0,0,0c0.2,0-1.2,5.1-2.8,11c-2.1,2-4.2,4-6.1,5.8c-9.6,9.2-12,15.5-12.2,19.7
		c-0.2,4.2,2.8,9.2,7.8,8.8c5.8-1.8,7.9-3.9,12.7-16.6c1.6-4.2,3-8.7,4.1-12.8c5.5-5.7,11-11.4,11.1-12.2c0.1-0.7,21.9-18.5,23-23.4
		c0.6-1.8,2,2.5,2.6,2.3c-0.6,0.4-5.4,4.2-4.5,10.2c0.4,0.3-0.1,8.8,8.5,9.1c0.6,0.2,7,1.3,16.8-10.1c0.1-0.1,0.1-0.1,0.2-0.2
		c0.8,3,2.8,6.8,3.9,7.4c4.6,2.4,6.7,0.1,7.3-0.1c0.6-0.2,2.7-1.8,5.2-4.1c0.4,0.6,0.7,1.1,0.9,1.3c0.7,0.8,2.5,4,5.8,4
		c1.3,0,8.5,1,13.5-5.6c0-0.1-16.6,29.1-17.1,31.1s1.7,5.8,7.2,3.8c3.9-6.6,11.5-18.2,17.8-30.5c0.1-0.2,7.8,4.4,12.8,2.6
		c0,0,0,0,0.1,0c1-0.3,14.1-2,22.9-9.4c0.2-0.2,0.2,9.5,7,10.7c6.8,1.2,14.4-6.5,14.6-8.1c0-0.1,2.1,10,9.7,9.5
		c3.4-0.2,10-1.1,19.7-9c1.2-1.1,1.5,6.7,9,8.2c1.6,0.3,2.9,0.1,4-0.3c0,0,0,0,0.1,0c6.4-2,20-8.4,20.6-9c0.3-0.3,16-10.8,18.5-14.7
		c0.6-0.9,6,1.3,8.3-3.3C390.8,48.2,388.7,44.8,386.2,44.5z M30.4,11.1c5.2-3.7,12.9-5.6,17.8-3c6.5,3.5-3.5,21-17.2,21.1
		c-6.3,0-10.7-1.1-13.8-2.9C21.5,19.7,26.4,14,30.4,11.1z M16.4,122.3c-1.3-0.2-3.1-6.8,2.8-15.2c2.1-3,4.7-6.6,7.4-10
		c-0.7,3.5-1.5,6.9-2.5,9.8C20.1,118.5,17.8,122.5,16.4,122.3z M69.4,51.5c2,0.3-1.3,5.6-5.7,9.9C65,56,67.5,51.3,69.4,51.5z
		 M105,55.6c0.3,1.6-8.6,13.7-11.6,11.9c-0.6-0.3-2.8-4.7-0.1-8.7c2.5-2.7,5.2-5.1,7-5.5c0.1,0,0.2,0,0.3,0c0.1,0,0.2,0,0.2,0
		c1,0,1.8,0,2.4,0.1c0.2,0,0.4,0.1,0.6,0.2C104.9,53.9,104.8,54.6,105,55.6z M130,69.1c-4.6,1-0.2-5.4,2.2-10.3
		c1.8-3.7,6.1-8.7,8.2-10.9c0.1,0,0.2,0,0.3,0C145,47.3,146.4,58.9,130,69.1z M123.4,111.5c-2.3,0.1,5.3-10.3,5.1-9.6
		c0,0,0.4-0.3,1-1c-0.2,0.8-0.3,1.3-0.4,1.6C128.8,104.7,123.4,111.9,123.4,111.5z M205,67.2c-1.4-0.2-0.6-7.3,1.4-9
		c0.5-0.6,1-1.2,1.5-1.8c3.5-2.8,5.7-3.8,6.4-2.9c1,0.8-1.3,6.8-2.4,8.2C210.7,63.1,206.7,67.4,205,67.2z M261.2,51.2
		c5.3,2.5-6.3,16.4-9.5,16.2c0,0,0,0,0,0c0,0,0,0,0,0c-0.1,0-0.2,0-0.3-0.1c-0.7,0-1.6-0.2-2.6-0.4c-0.7-0.3-1-0.8-1.3-1.5
		C247.5,63.6,257.3,49.3,261.2,51.2z M344.9,57.7c0.4,4.2-3.9,13-8.2,10.5c-0.8-0.5-1.5-1-2.1-1.7C338.5,65.3,344.8,56.6,344.9,57.7
		z"/>
	<path class="st0" d="M296.4,29.3c3,0.6,5.6-0.6,6-4c0.7-4.4-3.5-6.4-6-5C294,21.8,293,28.6,296.4,29.3z"/>
</g>
<g id="Geographics_2_xA0_Image_copy" class="st1">
	<g class="st2">
		<path d="M-18.9,5.1c-2.1-10.4,2-19.4,6.1-28.6c1.1-2.5-0.2-5.9-0.3-9c-0.2-5.3-0.5-10.6-0.5-15.8c0-0.7,2-2.2,2.2-2.1
			c1.5,1,3.8,2.2,3.9,3.5c0.3,4-0.3,8-0.5,12c0,0.8,0.4,1.6,0.6,2.5c0.6-0.6,1.2-1.1,1.7-1.7c5.1-7.2,10.8-14,19.7-16.3
			c4.6-1.2,9.8-1.7,14.3-0.7c8.5,1.8,12,14.7,6.1,21.2c-3.3,3.6-6.2,8-10.3,10.2c-7.6,4.2-16,4.7-24.1,0.5c-3.2-1.7-5.7-2.8-7.7,2
			c-3.2,7.5-6.1,14.8-5.2,23.2C-12,13-2.1,19.1,3.7,13.7c5.7-5.3,10.8-11.2,15.9-17c2-2.3,2.9-5.8,5.3-7.4c1.3-0.9,4.6,1,6.8,2.1
			c0.5,0.3,0.5,2.7,0,3.7C27.5,3.4,23,11.6,18.8,20c-0.8,1.6-0.9,3.5-1.2,5.3c0,0.1,0.7,0.6,0.9,0.6c5.3-2.9,10.6-5.7,15.7-8.9
			c1.1-0.7,2.1-2.4,2.1-3.6c0.3-6.8,3.3-12.3,7.7-17c1.5-1.7,4.8-3.4,6.7-2.8c2.8,0.8,6.8,3.4,7.1,5.6c0.6,5.1-1.9,9.7-6.4,13
			c-2.3,1.7-4.3,3.6-6.4,5.5c-0.2,0.2-0.3,1.1-0.2,1.1c0.7,0.3,1.5,0.9,2.2,0.7c6.9-1.6,11.8-5.8,16-11.2c4-5.1,7.8-10.5,12.6-14.6
			c2.4-2,6.9-2,10.4-2.2C90-8.9,93-6.8,95-3.1c0.2,0.3,2.8-0.4,4.2-0.9c8-2.8,15.9-5.8,23.9-8.5c1.3-0.4,3.4,0.2,4.5,1.2
			c1.7,1.3,2.6,3.5,4.2,5c1,1.1,2.9,1.4,3.7,2.6c2.8,4.3,0.3,7.2-2.5,10.7c-3.4,4.3-5.2,9.9-7.7,14.9c-0.1,0.1,0.1,0.3,0.2,0.5
			c0.2-0.1,0.4-0.2,0.6-0.3c6.4-5.9,13.1-11.4,19-17.8c3.4-3.7,5.4-8.8,8-13.3c1.3-2.2,2.2-4.9,4.1-6.1c1.6-1,5.1-0.8,6.4,0.3
			c4.6,4,1.7,7.3-1.8,10.3c-0.1,0.1,1.1,2.6,2.1,3.1c2.6,1.4,4.6,6.4,2.8,8.7c-1.6,2.2-4.1,3.7-5.8,5.8c-0.6,0.7-0.2,2.3-0.2,3.4
			c1.2,0,2.7,0.5,3.4-0.1c3.8-3.1,7.4-6.4,11.1-9.7c4.6-4.1,8.9-8.8,14.1-12.2c2.9-1.9,7.1-2.1,10.7-2.7c0.7-0.1,2.2,1.2,2.6,2.2
			c1.4,3.5,2.6,7,3.5,10.6c0.2,0.9-1.8,2.1-2.4,3.3c-1,2.1-1.6,4.4-2.3,6.6c1.3,0,3,0.6,3.9-0.1c6.9-5.2,13.6-10.5,20.3-16
			c1.8-1.5,2.9-3.7,4.4-5.5c0.2-0.2,1.2,0.2,1.9,0.3c0.9,0.2,2.2,0.8,2.7,0.4c4.7-3.5,9.2-1.6,12.1,1.8c2.1,2.4,2.3,6.8,2.5,10.4
			c0.1,2-1.6,4.1-2.5,6.1c-0.1,0.3-0.1,0.6-0.2,0.9c0.3-0.1,0.6-0.1,0.9-0.2c4.8-3.5,9.7-6.9,14.3-10.6c1.4-1.1,1.8-3.4,3.2-4.4
			c1.6-1.1,3.8-1.3,5.7-1.9c0.5,2.1,1.4,4.1,1.4,6.2c0,1-1.6,2.1-2.6,3c-2.8,2.4-4.2,8.5-2.4,11.8c0.2,0.3,1.6,0.5,1.9,0.2
			c4.8-4.7,9.4-9.7,14.4-14.2c3-2.7,6.5-5.2,10.1-6.8c2.2-1,5.9-3.2,7.6,0.8c1,2.3,1.5,5.3,0.9,7.6c-0.5,2.1-2.9,3.7-4.5,5.5
			c-1.1-1-2.2-2.1-3.3-3.1c-0.4-0.4-0.8-0.9-1.2-1.4c-1.7,2.1-3.8,3.9-4.9,6.2c-0.6,1.2,0.7,4.8,0.9,4.8c4.1-0.3,9,0.2,12.2-1.8
			c9.4-6.3,18.3-13.4,27-20.7c2.2-1.8,3.5-3.1,6.1-1.7c0.4,0.2,1,0.6,1,0.9c0.3,2.2,1.5,5.3,0.5,6.3c-4.5,4.5-3.5,10.4-4.7,15.7
			c0.3,0,0.7,0.2,1,0.1c9.4-3.5,16.7-10,24.1-16.5c2.7-2.4,5.9-4.4,9.3-5.8c1.1-0.5,4.3,1.3,4.8,2.7c0.5,1.3-1,4-2.4,5
			c-4.2,2.9-9,5.1-13.3,7.9c-5.4,3.5-10.2,7.8-15.7,11.1c-4.1,2.5-8.7,4.4-13.3,5.7c-2.5,0.7-5.9,0.2-8.4-0.8c-2.3-1-3.9-3.5-6-5.1
			c-0.7-0.6-2.1-0.9-2.9-0.6c-4.7,1.9-9.3,4.2-14.1,6c-2.9,1.1-11.5-3.5-12.7-6.3c-0.1-0.4-1.3-0.7-1.6-0.5c-4,2.2-7.8,5.2-12,6.7
			c-2.9,1.1-5.8-0.6-6.7-4.3c-0.4-1.8-1-3.6-1.9-5.3c-0.1-0.2-2.2,0.4-3.2,0.8c-6.6,2.9-13,6.3-19.7,8.5c-2.5,0.8-6.2-0.4-8.6-1.9
			c-4-2.5-5.1-0.3-6.8,2.5c-5.1,8.6-10.4,17.1-15.8,25.4c-0.8,1.2-3.1,2.5-4,2.1c-3.1-1.4-4.2-4.3-2.3-7.3c3.1-5,6.8-9.6,9.9-14.6
			c2.4-3.9,4.3-8.1,6.4-12.2c0.1-0.2,0-0.6,0-0.9c-0.3,0.1-0.6,0.1-0.9,0.2c-4.1,1.6-8.1,3.6-12.4,4.4c-1.6,0.3-3.7-2.3-5.7-3.3
			c-0.7-0.4-1.9-0.3-2.6,0c-2.8,1.1-5.7,3.7-8.1,3.2c-2.4-0.5-4.2-3.9-6.4-5.9c-0.5-0.5-1.7-1-2.1-0.7c-3.9,2.6-7.5,5.8-11.7,8
			c-4.3,2.2-8.3,0.3-10.6-3.7c-2.7-4.6-1.6-10.2,1.8-13.4c0.6-0.5,1.2-1.5,1.1-2.1c-0.2-0.7-1.2-1.1-1.9-1.7
			c-0.5,0.6-0.9,1.2-1.4,1.8c-3.3,3.6-6.5,7.2-9.9,10.6c-6.1,6-12.1,12.2-18.8,17.6c-5.7,4.6-5.3,11.6-8.1,17.3
			c-2.9,5.7-6.2,11.2-9.8,16.6c-0.7,1-3.7,1.5-4.8,0.9c-2.3-1.4-5.9-3.9-5.7-5.6c0.5-4.4,2.1-9,4.5-12.6c3.8-5.8,9-10.7,12.9-16.4
			c1.8-2.5,2.1-6,2.9-9.1c0-0.1-1-0.7-1.2-0.6c-3.6,2.3-7,1.4-9.7-1.3c-2.9-2.8-3.8-6.6-2.4-10.5c1.2-3.5,2.8-6.8,4.2-10.3
			c0.1-0.2,0.1-0.5,0.1-0.8c-0.3,0-0.6-0.2-0.8-0.1c-4.8,1.8-9.8,3.2-14.2,5.5c-2,1-2.7,4.1-4.4,6c-3,3.4-5.9,7.2-9.5,9.9
			c-3.6,2.7-10.7,1.9-11.8-4.4c-0.1-0.5-0.6-0.9-0.9-1.4c-0.3,0.3-0.7,0.7-1,0.9c-6.6,5-12.8,11-22.3,8.6c-0.3-0.1-0.8-0.1-1-0.4
			c-3.2-4.5-6-1.2-8.9,0.3c-3.3,1.8-6.6,3.8-10,5.3c-5.8,2.4-8.4,6.6-9.2,12.7c-1.5,10.9-3.9,21.8-10.5,30.9
			c-1.1,1.6-4.4,2.4-6.5,2.3c-3.9-0.2-7-2.1-7.5-6.6c-1-8.1,2.3-14.8,6.8-21C0,43.9,4.5,39.2,7.6,33.8c2-3.4,2.1-7.9,3.1-11.9
			c0.4-1.5,0.7-3.1,1.1-4.6c-1.4,0.9-2.7,1.8-4.1,2.7c-7.7,4.6-15.8,3-21.3-4.3c-2.3-3.2-4.3-6.6-6.5-9.9
			C-19.8,5.6-19.3,5.4-18.9,5.1z M9.1-23c10.2-0.1,17-5.2,21.6-13.5c0.9-1.7,1.1-5.2,0-6.3c-3.1-3.3-13.9-3.1-17.2,0.1
			c-5.2,4.9-10,10.2-14.9,15.4c-0.2,0.2,0.2,1.6,0.6,1.7C2.4-24.7,5.8-23.9,9.1-23z M110,15.6c0.2,0.4,0.5,1.3,0.7,1.3
			c0.7,0,1.6-0.2,2.1-0.6c2.9-2.5,5.7-4.9,8.4-7.6c0.6-0.6,0.3-2,0.4-3c0.2-1.9,0.1-3.8,0.5-5.7c0.3-1.3,1.1-2.4,1.6-3.6
			c-0.7,0-1.8-0.4-2.2-0.1C115.7,1.5,111.8,7.9,110,15.6z M243.5,1.3c-0.4-0.4-1.1-1.8-2-2c-1.1-0.2-2.8,0.3-3.5,1.1
			c-2.9,3.6-5.5,7.5-8.2,11.3c-0.5,0.7-0.7,1.6-1.1,2.4c1.5,0.4,3,1.5,4.3,1.2C236.9,14.5,243.4,5.9,243.5,1.3z M75.1,16.3
			c3.3-3.7,6.5-6.9,9.3-10.5C87,2.7,82,3.7,82,1.9c-0.6,0-1.3-0.3-1.6,0c-2.3,1.7-5.2,3.2-6.6,5.5c-1.1,1.7-0.4,4.6-0.4,7
			C73.4,14.7,74,15.1,75.1,16.3z M-4.5,67.9c0.7,0.9,1,1.8,1.5,1.9c0.6,0.1,1.7-0.4,1.9-0.8C1.5,61.8,4,54.5,6.5,47.3
			c0.1-0.2-0.1-0.6-0.2-0.8c-0.2,0.1-0.5,0.2-0.6,0.3c-2.4,4-4.9,7.9-7,12.1C-2.7,61.7-3.4,64.9-4.5,67.9z M194.8,1.9
			c-1.3,0.5-1.9,0.8-2.5,1c-5,1.8-6.7,5.9-7.1,10.8c0,0.3,1.2,1.2,1.4,1.1C190.8,12,194.3,8.6,194.8,1.9z M325.8,8
			c-0.3-1.2-0.4-1.6-0.5-1.9c-0.4,0.2-0.8,0.2-1.1,0.5c-1.9,1.6-3.9,3.2-5.7,4.9c-1,0.9-1.8,2-2.6,3.1c-0.1,0.1,0.8,1.3,1.1,1.3
			c1.9-0.2,4.5-0.1,5.5-1.2C324.2,12.7,324.9,9.9,325.8,8z M51.3,1c-0.5-0.7-0.6-1.1-0.7-1.1c-0.4,0-0.9,0-1.1,0.2
			c-1.8,2.7-3.6,5.3-5.4,8c-0.1,0.1,0.3,0.4,0.4,0.6C46.8,6.2,49,3.6,51.3,1z M103.8,59.7c0.4-0.3,0.5-0.4,0.5-0.4
			c1.6-2.8,3.3-5.5,4.9-8.3c0.1-0.1-0.1-0.3-0.1-0.5c-0.2,0.1-0.4,0.2-0.5,0.4c-1.6,2.6-3.1,5.2-4.7,7.9
			C103.9,59,103.9,59.2,103.8,59.7z"/>
		<path d="M305,20c1.4,1.5,3.7,2.8,4,4.5c0.8,3.9-3.2,4-5.6,5.3c-0.1,0.1-1.9-1.7-1.8-2.5c0.2-2.4,1-4.7,1.6-7
			C303.9,20.2,304.4,20.1,305,20z"/>
	</g>
</g>
</svg>
