<svg id="Layer_1" data-name="Layer 1" xmlns="http://www.w3.org/2000/svg" viewBox="0 0 24 24"><defs><style>.cls-1{fill:#454545;}</style></defs><title>Artboard 1 copy</title><g id="Light"><path class="cls-1" d="M12,17.61A5.61,5.61,0,1,1,17.61,12,5.62,5.62,0,0,1,12,17.61Zm0-9.22A3.61,3.61,0,1,0,15.61,12,3.61,3.61,0,0,0,12,8.39Z"/><path class="cls-1" d="M12,5.77h0a1,1,0,0,1-1-1V1.13a1,1,0,0,1,1-1h0a1,1,0,0,1,1,1V4.77A1,1,0,0,1,12,5.77Z"/><path class="cls-1" d="M16,6.93a1,1,0,0,1-.84-1.54l2-3.06a1,1,0,0,1,1.68,1.08l-2,3.06A1,1,0,0,1,16,6.93Z"/><path class="cls-1" d="M18.75,10.08a1,1,0,0,1-.91-.58,1,1,0,0,1,.5-1.33l3.31-1.51a1,1,0,0,1,1.32.5,1,1,0,0,1-.5,1.32L19.16,10A1,1,0,0,1,18.75,10.08Z"/><path class="cls-1" d="M23,14.75h-.14l-3.6-.52a1,1,0,1,1,.29-2l3.6.52a1,1,0,0,1-.15,2Z"/><path class="cls-1" d="M20.4,20.44a1,1,0,0,1-.65-.24L17,17.81a1,1,0,1,1,1.31-1.51l2.75,2.39a1,1,0,0,1-.66,1.75Z"/><path class="cls-1" d="M15.16,23.84a1,1,0,0,1-1-.72l-1-3.49a1,1,0,0,1,.68-1.24,1,1,0,0,1,1.24.68l1,3.49a1,1,0,0,1-.68,1.24A.9.9,0,0,1,15.16,23.84Z"/><path class="cls-1" d="M8.92,23.87a1.45,1.45,0,0,1-.29,0A1,1,0,0,1,8,22.58L9,19.1a1,1,0,0,1,1.25-.68,1,1,0,0,1,.67,1.24l-1,3.49A1,1,0,0,1,8.92,23.87Z"/><path class="cls-1" d="M3.65,20.51A1,1,0,0,1,3,18.76l2.75-2.38a1,1,0,1,1,1.31,1.51L4.3,20.27A1,1,0,0,1,3.65,20.51Z"/><path class="cls-1" d="M1,14.85A1,1,0,0,1,0,14a1,1,0,0,1,.85-1.13l3.6-.52a1,1,0,1,1,.28,2l-3.6.52Z"/><path class="cls-1" d="M5.2,10.17a1.06,1.06,0,0,1-.42-.09L1.47,8.57A1,1,0,0,1,2.3,6.75L5.61,8.26a1,1,0,0,1-.41,1.91Z"/><path class="cls-1" d="M7.92,7a1,1,0,0,1-.84-.46l-2-3.06A1,1,0,0,1,6.8,2.38l2,3.06a1,1,0,0,1-.3,1.38A1,1,0,0,1,7.92,7Z"/><path class="cls-1" d="M11.94,5.77a1,1,0,0,1-1-1V1.13a1,1,0,0,1,2,0V4.77A1,1,0,0,1,11.94,5.77Z"/></g></svg>