<?xml version="1.0" encoding="utf-8"?>
<!-- Generator: Adobe Illustrator 23.0.6, SVG Export Plug-In . SVG Version: 6.00 Build 0)  -->
<svg version="1.1" id="Layer_1" xmlns="http://www.w3.org/2000/svg" xmlns:xlink="http://www.w3.org/1999/xlink" x="0px" y="0px"
	 viewBox="0 0 232.3 55.39" style="enable-background:new 0 0 232.3 55.39;" xml:space="preserve">
<style type="text/css">
	.st0{fill:url(#SVGID_1_);}
</style>
<radialGradient id="SVGID_1_" cx="-463.9946" cy="573.9062" r="0.9992" gradientTransform="matrix(2.112516e-15 34.5 117 -7.164184e-15 -67030.8672 16028.9482)" gradientUnits="userSpaceOnUse">
	<stop  offset="0.6823" style="stop-color:#313030"/>
	<stop  offset="1" style="stop-color:#000000"/>
</radialGradient>
<path class="st0" d="M11.66,53.02c-2.68,0-4.84-0.7-6.49-2.09c-1.61-1.36-2.42-3.15-2.42-5.39c0-1.39,0.33-2.68,0.99-3.85
	c0.66-1.17,1.56-2.09,2.69-2.75c1.14-0.7,2.38-1.05,3.74-1.05c1.39,0,2.51,0.35,3.35,1.05c0.88,0.7,1.32,1.61,1.32,2.75
	c0,0.88-0.2,1.58-0.61,2.09c-0.33-0.44-0.79-0.79-1.38-1.05c-0.55-0.26-1.14-0.38-1.76-0.38c-1.1,0-2,0.37-2.69,1.1
	c-0.7,0.73-1.05,1.69-1.05,2.86c0,1.17,0.33,2.13,0.99,2.86c0.7,0.73,1.56,1.1,2.59,1.1c1.28,0,2.38-0.57,3.3-1.7
	s1.61-2.82,2.09-5.06l2.75-12.15h-0.22c-0.99,1.39-2.2,2.46-3.63,3.19c-1.39,0.73-2.93,1.1-4.62,1.1c-2.13,0-4-0.57-5.61-1.71
	s-2.86-2.75-3.74-4.84C0.42,26.97,0,24.51,0,21.73c0-4.03,0.88-7.7,2.64-11C4.4,7.39,6.82,4.77,9.9,2.86C12.98,0.95,16.37,0,20.08,0
	c3.12,0,5.57,0.68,7.37,2.04c1.83,1.36,2.75,3.21,2.75,5.56c0,1.58-0.39,2.84-1.16,3.8c-0.77,0.95-1.78,1.43-3.02,1.43
	c-0.7,0-1.36-0.15-1.98-0.44c-0.59-0.29-1.08-0.72-1.49-1.26c0.66-0.44,1.21-1.14,1.65-2.09c0.48-0.99,0.71-1.98,0.71-2.97
	c0-1.1-0.33-1.94-0.99-2.53C23.3,2.9,22.4,2.59,21.23,2.59c-2.13,0-4.18,0.95-6.16,2.86c-1.98,1.87-3.57,4.33-4.78,7.37
	s-1.81,6.23-1.81,9.57c0,2.75,0.44,4.86,1.32,6.33c0.88,1.43,2.14,2.14,3.8,2.14c1.98,0,3.72-1.05,5.22-3.14
	c1.54-2.09,2.77-5.13,3.69-9.13l6.49,0.06l-4.02,18.48c-1.17,5.46-2.84,9.48-5,12.04C17.84,51.74,15.07,53.02,11.66,53.02z
	 M38.62,41.97c-2.71,0-4.82-0.7-6.33-2.09c-1.5-1.43-2.25-3.65-2.25-6.66c0-2.53,0.5-5.32,1.49-8.36c0.99-3.04,2.6-5.67,4.84-7.86
	c2.24-2.24,5.08-3.36,8.53-3.36c4.03,0,6.05,1.76,6.05,5.28c0,2.05-0.59,3.94-1.76,5.67c-1.17,1.72-2.73,3.12-4.67,4.18
	c-1.94,1.03-4.02,1.61-6.22,1.76c-0.07,1.1-0.11,1.83-0.11,2.2c0,1.8,0.31,3.03,0.93,3.69c0.62,0.62,1.63,0.93,3.03,0.93
	c1.98,0,3.67-0.46,5.06-1.38c1.43-0.92,2.99-2.31,4.67-4.18h1.87C49.67,38.57,44.63,41.97,38.62,41.97z M38.73,27.89
	c1.36-0.07,2.64-0.55,3.85-1.43c1.25-0.88,2.24-2,2.97-3.35c0.77-1.36,1.15-2.79,1.15-4.29c0-1.5-0.46-2.25-1.38-2.25
	c-1.32,0-2.62,1.16-3.9,3.47C40.18,22.33,39.28,24.95,38.73,27.89z M59.89,41.86c-2.71,0-4.86-0.7-6.43-2.09
	c-1.58-1.39-2.37-3.59-2.37-6.6c0-2.49,0.51-5.26,1.54-8.3c1.03-3.04,2.68-5.67,4.95-7.86c2.27-2.24,5.13-3.36,8.58-3.36
	c4.69,0,7.04,2.93,7.04,8.8v0.06c0.11,0.04,0.31,0.06,0.61,0.06c1.21,0,2.6-0.31,4.18-0.94c1.58-0.66,3.01-1.45,4.29-2.36l0.5,1.49
	c-1.06,1.14-2.46,2.11-4.18,2.91c-1.69,0.77-3.54,1.32-5.56,1.65c-0.29,3.34-1.04,6.25-2.25,8.74s-2.77,4.42-4.68,5.78
	C64.2,41.18,62.13,41.86,59.89,41.86z M62.09,36.91c0.88,0,1.76-0.49,2.64-1.49c0.88-1.03,1.65-2.4,2.31-4.12
	c0.66-1.76,1.14-3.7,1.43-5.83c-0.99-0.22-1.49-0.99-1.49-2.31c0-1.5,0.57-2.49,1.71-2.97c-0.07-1.21-0.26-2.03-0.55-2.47
	C67.85,17.23,67.33,17,66.6,17c-1.21,0-2.38,0.88-3.52,2.64c-1.14,1.76-2.05,3.87-2.75,6.33c-0.7,2.46-1.05,4.62-1.05,6.49
	c0,1.76,0.2,2.95,0.6,3.58C60.29,36.61,61.03,36.91,62.09,36.91z M85.77,55.39c-1.76,0-3.23-0.46-4.4-1.38s-1.76-2.24-1.76-3.96
	c0-2.09,0.84-3.78,2.53-5.06c1.69-1.25,3.83-2.29,6.43-3.13l0.66-2.92c-1.87,2.02-4.07,3.03-6.6,3.03c-2.09,0-3.83-0.72-5.22-2.15
	c-1.39-1.43-2.09-3.67-2.09-6.71c0-2.71,0.53-5.55,1.6-8.52c1.1-3.01,2.71-5.54,4.84-7.59c2.16-2.09,4.73-3.14,7.7-3.14
	c1.5,0,2.62,0.26,3.35,0.77c0.73,0.51,1.1,1.19,1.1,2.04V17l0.6-2.86h7.92l-5.44,25.52c1.76-0.59,3.17-1.47,4.23-2.64
	c1.06-1.17,1.96-2.92,2.69-5.23h2.31c-0.99,3.26-2.33,5.67-4.01,7.21c-1.69,1.5-3.59,2.53-5.72,3.08l-0.83,3.96
	c-0.73,3.56-2,5.99-3.79,7.31C90.07,54.71,88.04,55.39,85.77,55.39z M86.21,36.63c0.84,0,1.71-0.38,2.58-1.15
	c0.88-0.77,1.49-1.81,1.82-3.13l2.81-13.04c0-0.44-0.18-0.88-0.55-1.32c-0.37-0.48-0.93-0.72-1.7-0.72c-1.47,0-2.79,0.86-3.96,2.58
	c-1.17,1.69-2.09,3.74-2.75,6.16c-0.66,2.38-0.99,4.49-0.99,6.33c0,1.83,0.26,3.01,0.77,3.52C84.78,36.37,85.44,36.63,86.21,36.63z
	 M84.5,51.1c0.62,0,1.23-0.42,1.82-1.26s1.04-2.05,1.38-3.63l0.33-1.59c-3.59,1.32-5.39,2.88-5.39,4.67c0,0.48,0.17,0.9,0.49,1.26
	C83.46,50.91,83.91,51.1,84.5,51.1z M107.65,14.14h7.92l-0.71,3.41c1.25-1.1,2.36-1.94,3.35-2.53c1.03-0.59,2.13-0.88,3.3-0.88
	c1.17,0,2.09,0.4,2.75,1.21c0.7,0.81,1.04,1.78,1.04,2.91c0,1.06-0.35,2-1.04,2.81c-0.7,0.81-1.67,1.21-2.92,1.21
	c-0.81,0-1.36-0.18-1.65-0.55c-0.26-0.4-0.46-0.97-0.61-1.7c-0.11-0.48-0.22-0.83-0.33-1.05s-0.31-0.33-0.61-0.33
	c-0.77,0-1.43,0.16-1.98,0.49c-0.51,0.29-1.19,0.83-2.04,1.6l-4.4,20.9h-7.92L107.65,14.14z M131.18,41.97
	c-2.09,0-3.83-0.72-5.22-2.15c-1.39-1.43-2.09-3.67-2.09-6.71c0-2.71,0.53-5.55,1.6-8.52c1.1-3.01,2.71-5.54,4.84-7.59
	c2.16-2.09,4.73-3.14,7.7-3.14c1.5,0,2.62,0.26,3.35,0.77s1.1,1.19,1.1,2.04v0.39l0.6-2.92h7.92l-3.96,18.7
	c-0.15,0.55-0.22,1.14-0.22,1.76c0,1.58,0.75,2.37,2.25,2.37c1.03,0,1.91-0.48,2.64-1.43c0.77-0.95,1.38-2.2,1.82-3.74h2.31
	c-1.36,3.96-3.04,6.66-5.06,8.09c-1.98,1.39-3.98,2.09-5.99,2.09c-1.54,0-2.79-0.42-3.74-1.27c-0.92-0.88-1.47-2.15-1.65-3.79
	c-1.06,1.5-2.26,2.73-3.57,3.69C134.52,41.51,132.98,41.97,131.18,41.97z M134.76,36.63c0.92,0,1.82-0.42,2.7-1.26
	c0.92-0.88,1.54-2.07,1.87-3.58l2.64-12.43c0-0.48-0.18-0.93-0.55-1.38c-0.37-0.48-0.94-0.72-1.71-0.72c-1.47,0-2.79,0.86-3.96,2.58
	c-1.17,1.69-2.09,3.74-2.75,6.16c-0.66,2.38-0.99,4.49-0.99,6.33c0,1.83,0.26,3.01,0.77,3.52
	C133.33,36.37,133.99,36.63,134.76,36.63z M157.71,12.1h7.92l-0.88,4.12c1.83-1.58,3.98-2.36,6.43-2.36c2.05,0,3.68,0.68,4.9,2.03
	c1.21,1.36,1.82,3.57,1.82,6.66c0,2.9-0.42,5.83-1.27,8.8c-0.84,2.93-2.27,5.44-4.29,7.53c-2.02,2.05-4.68,3.08-7.98,3.08
	c-2.35,0-3.9-0.66-4.67-1.98l-2.86,13.42l-8.31,1.98L157.71,12.1z M162.67,37.18c1.76,0,3.21-0.82,4.34-2.47
	c1.17-1.65,2.02-3.61,2.53-5.89c0.55-2.31,0.82-4.45,0.82-6.43c0-3.04-0.92-4.57-2.75-4.57c-0.66,0-1.34,0.24-2.04,0.72
	c-0.66,0.48-1.25,1.14-1.76,1.98l-3.25,15.4C160.87,36.76,161.57,37.18,162.67,37.18z M188.45,11.17c-1.21,0-2.24-0.42-3.08-1.26
	c-0.84-0.84-1.26-1.87-1.26-3.08s0.42-2.24,1.26-3.08c0.84-0.88,1.87-1.32,3.08-1.32c1.21,0,2.24,0.44,3.08,1.32
	c0.88,0.84,1.32,1.87,1.32,3.08s-0.44,2.24-1.32,3.08C190.68,10.74,189.66,11.17,188.45,11.17z M184.71,41.97
	c-1.76,0-3.19-0.55-4.29-1.65c-1.06-1.1-1.6-2.75-1.6-4.95c0-0.92,0.15-2.11,0.44-3.58L183,14.14h7.92l-3.96,18.7
	c-0.15,0.55-0.22,1.14-0.22,1.76c0,0.73,0.17,1.26,0.5,1.6c0.37,0.29,0.95,0.44,1.76,0.44c1.06,0,2.05-0.44,2.97-1.32
	c0.92-0.92,1.58-2.09,1.98-3.52h2.31c-1.36,3.96-3.1,6.66-5.22,8.09C188.91,41.27,186.8,41.97,184.71,41.97z M201.79,41.97
	c-2.71,0-4.82-0.7-6.32-2.09c-1.5-1.43-2.26-3.65-2.26-6.66c0-2.53,0.5-5.32,1.49-8.36c1.03-3.04,2.64-5.67,4.84-7.86
	c2.24-2.24,5.06-3.36,8.47-3.36c2.2,0,3.76,0.48,4.68,1.43c0.95,0.95,1.43,2.16,1.43,3.63c0,1.28-0.28,2.27-0.83,2.97
	c-0.55,0.7-1.25,1.05-2.09,1.05c-0.62,0-1.26-0.22-1.93-0.66c0.44-1.21,0.66-2.29,0.66-3.25c0-0.7-0.13-1.25-0.38-1.65
	c-0.26-0.4-0.64-0.6-1.15-0.6c-1.1,0-2.2,0.9-3.3,2.69c-1.1,1.8-2,3.98-2.7,6.55c-0.7,2.57-1.04,4.88-1.04,6.93
	c0,1.8,0.31,3.03,0.93,3.69c0.62,0.62,1.63,0.93,3.03,0.93c1.98,0,3.67-0.46,5.06-1.38c1.43-0.92,2.99-2.31,4.68-4.18h1.87
	C212.85,38.57,207.8,41.97,201.79,41.97z M221.3,41.97c-1.76,0-3.24-0.33-4.46-0.99c-1.21-0.7-2.11-1.58-2.69-2.64
	c-0.59-1.1-0.88-2.24-0.88-3.41c0-1.21,0.29-2.26,0.88-3.14c0.55-0.92,1.23-1.58,2.03-1.98c1.43-2.57,2.68-5.15,3.74-7.75
	c1.06-2.64,2.07-5.48,3.02-8.52l8.14-1.1c0.18,4.69,0.49,9.77,0.93,15.24c0.18,2.2,0.27,3.8,0.27,4.78c0,2.24-0.57,4.07-1.71,5.5
	c-1.14,1.43-2.55,2.46-4.24,3.08C224.71,41.65,223.03,41.97,221.3,41.97z M219.54,37.62c1.36,0,2.49-0.4,3.41-1.21
	c0.92-0.81,1.38-2.11,1.38-3.91c0-1.1-0.11-2.64-0.33-4.62c-0.37-4.18-0.61-6.99-0.72-8.42c-0.88,2.9-2.36,6.36-4.46,10.4
	c0.84,0.44,1.27,1.08,1.27,1.92c0,0.7-0.24,1.32-0.72,1.87c-0.44,0.55-1.01,0.82-1.71,0.82c-0.77,0-1.26-0.24-1.49-0.72
	c0,1.32,0.26,2.29,0.77,2.92C217.51,37.31,218.37,37.62,219.54,37.62z"/>
</svg>
