<svg enable-background="new 0 0 389.9 128.8" viewBox="0 0 389.9 128.8" xmlns="http://www.w3.org/2000/svg"><path d="m386.3 44.9c-2.5-.3-12 6.4-12.8 7.5-.7 1-19.2 13.2-23.6 15.5 1.1-1.2 2-10.3 2-11.7-.3-.1 3.9-2.6 4.1-6.2s-5.6-6.6-6.4-6.2c-.5.3-16.5 15-19.1 16.4s-12.1 8.9-13.4 9c-3.7 1.7-8.4 1.7-10.5-2.5s3.3-7.3 4.8-8.7c1.5-1.5 2.3.9 2.3.9s.5 4.1 5.6 2.6c7-8.5.7-12.7-1.9-13.7s-10.3.8-13.4 5.2c-3 4.4-14.6 19.6-17.7 17.2-3-2.4 0-10.1.6-11.2s5.3-1.7 4.8-6.9-3.9-4.2-5.6-3.6-8.6 9-8.8 9.3c-.3.1-12.4 8.1-11.9 8 .1 0-.2.1-.7.2.3-.6.5-1 .5-1.2.7-1.7 3.9-6.4 3.7-7.7 1.8-6 .8-9.5-3.2-11.8s-7.8-3.8-13.2 2.1c-.6.7.9-2.8-2.7-2.6-1.5.1-12.6 14.7-17.1 17.6h-.1c-8.5 5.8-10.9 5.4-11.4 5.2-1.5-.5-1.2-1.9-1.8-3.2 2.2-2.3 4.1-4.5 5.1-6.1 2.9-4.8-1.5-9.7-1.9-10.5-2.2-4.4-7-4.8-9.6-4.1s-20.2 17-19.9 16.9c.6-.1-11.3 12.4-13.5 8.1-.8-1.8.1-2.5.7-4 .7-1.5 1.4-2.8 4.1-2.4 1.3.4 2-3.2 2.2-3.9 1.8-7-7-9.1-6.6-9.6 2.8-3.3 5.4-6.5 5.6-7.3.5-1.8-2.1-6.8-8.1-5.8-.7-.6-9.3 15.4-9.7 16.1-1 2.4-19 18.7-17.5 17.6.7-.5-2.3 2.4-6.7 6.7.1-.5.2-.8.3-.9.5-.2 3.2-6.8 5.7-13.4 3.5-4.4 6.3-8.6 6.1-9.9-1.7-8.5-5.7-11.7-11.9-12.4s-13 4.7-12.8 4.4c.5-1-16.7 6-17 5.6 1-3.7-5.4-5.6-6-5.8-5.5-2.1-9.5-.8-12.5 1.4-1.8.4-9.8 10.5-10.7 11.6-6 6.8-10.1 10.9-10.1 10.9-4 2.3-10.6 7-11.8 2.2 4.7-3.6 10.8-7.9 11.7-9.6 1.3-2.7 5.2-10.9-1.7-13.8-6.8-2.9-12.1 1.6-15.7 11.4-1.3 3.5-1.9 6.8-1.8 9.7-5.4 3-13.5 7.1-19.1 10.3 1-5 2-8.8 3.6-12 3.8-7.6 10.4-19 11.5-20.8s-6.3-8-9-3.2c-2.8 4.8-14.8 25.2-22.9 25.7s-16.9-8.6-12.2-21.8c1.7-4.7 4-9.6 6.8-14.4 3.8 2.1 10.4 4.2 21.6 3.9 8.3-.2 20.4-5.3 22.7-16s.3-20.5-19.1-19c-8.4.7-19.2 8.9-27.4 20.3-.3-.7-.5-1.5-.7-2.2-.8-3.7-1.3-10.8.3-14.8.7-1.7-4.4-3.7-5.2-2.9 0 0-1.9 6.7-1.1 14 .5 4.9 1.7 8.6 3.2 11.2-7.7 12.9-12.6 31.1-3.4 41.3 9.8 10.8 21.6 6.5 26.1 1.9-.9 3.8-1.6 9-2.4 14.7-5.4 5.7-15.8 17.8-18.1 25.6-2.8 9.1-2 18.7 3.6 19.4 5.7.7 12.7.6 17-21.5 1.5-7.5 2.5-13.7 3.4-19.1 2.4-2.4 4.9-4.4 7.3-5.6 7.9-4.2 13.7-4.9 15.8-7.9 1.1 1.4 2.5 2.3 4.3 2.7 6.6 1.4 13.7-.8 16.8-3.6l7-5.8s0 0 0-.1c1.5 4.2 4 7.8 7.8 7.4 9.5-1 14.8-9.6 17.6-16.7.1.1.1 0 .1-.1-.1-1 14.5-4.9 16.3-6.1-1.5 1.7-5.2 8.1-6.7 16.4-.6 13.1 14.5 5.7 15.4 5.9.2 0-1.2 5.1-2.8 11-2.1 2-4.2 4-6.1 5.8-9.6 9.2-12 15.5-12.2 19.7s2.8 9.2 7.8 8.8c5.8-1.8 7.9-3.9 12.7-16.6 1.6-4.2 3-8.7 4.1-12.8 5.5-5.7 11-11.4 11.1-12.2.1-.7 21.9-18.5 23-23.4.6-1.8 2 2.5 2.6 2.3-.6.4-5.4 4.2-4.5 10.2.4.3-.1 8.8 8.5 9.1.6.2 7 1.3 16.8-10.1.1-.1.1-.1.2-.2.8 3 2.8 6.8 3.9 7.4 4.6 2.4 6.7.1 7.3-.1s2.7-1.8 5.2-4.1c.4.6.7 1.1.9 1.3.7.8 2.5 4 5.8 4 1.3 0 8.5 1 13.5-5.6 0-.1-16.6 29.1-17.1 31.1s1.7 5.8 7.2 3.8c3.9-6.6 11.5-18.2 17.8-30.5.1-.2 7.8 4.4 12.8 2.6h.1c1-.3 14.1-2 22.9-9.4.2-.2.2 9.5 7 10.7s14.4-6.5 14.6-8.1c0-.1 2.1 10 9.7 9.5 3.4-.2 10-1.1 19.7-9 1.2-1.1 1.5 6.7 9 8.2 1.6.3 2.9.1 4-.3h.1c6.4-2 20-8.4 20.6-9 .3-.3 16-10.8 18.5-14.7.6-.9 6 1.3 8.3-3.3 1.7-2.2-.5-5.5-3-5.8zm-355.8-33.4c5.2-3.7 12.9-5.6 17.8-3 6.5 3.5-3.5 21-17.2 21.1-6.3 0-10.7-1.1-13.8-2.9 4.4-6.7 9.2-12.3 13.2-15.2zm-13.9 111.2c-1.3-.2-3.1-6.8 2.8-15.2 2.1-3 4.7-6.6 7.4-10-.7 3.5-1.5 6.9-2.5 9.8-4.1 11.6-6.4 15.6-7.7 15.4zm53-70.8c2 .3-1.3 5.6-5.7 9.9 1.2-5.4 3.8-10.2 5.7-9.9zm35.6 4.1c.3 1.6-8.6 13.7-11.6 11.9-.6-.3-2.8-4.7-.1-8.7 2.5-2.7 5.2-5.1 7-5.5h.3s.2 0 .2 0c1 0 1.8 0 2.4.1.2 0 .4.1.6.2 1 .3 1 1 1.2 2zm24.9 13.5c-4.6 1-.2-5.4 2.2-10.3 1.8-3.7 6.1-8.7 8.2-10.9h.3c4.3-.7 5.7 11-10.7 21.2zm-6.5 42.4c-2.3.1 5.3-10.3 5.1-9.6 0 0 .4-.3 1-1-.2.8-.3 1.3-.4 1.6-.3 2.2-5.7 9.4-5.7 9zm81.6-44.4c-1.4-.2-.6-7.3 1.4-9 .5-.6 1-1.2 1.5-1.8 3.5-2.8 5.7-3.8 6.4-2.9 1 .8-1.3 6.8-2.4 8.2-1.2 1.5-5.2 5.8-6.9 5.5zm56.2-16c5.3 2.5-6.3 16.4-9.5 16.2-.1 0-.2 0-.3-.1-.7 0-1.6-.2-2.6-.4-.7-.3-1-.8-1.3-1.5 0-1.7 9.8-16 13.7-14.2zm83.6 6.6c.4 4.2-3.9 13-8.2 10.5-.8-.5-1.5-1-2.1-1.7 3.9-1.2 10.2-9.9 10.3-8.8z"/><path d="m296.6 29.7c3 .6 5.6-.6 6-4 .7-4.4-3.5-6.4-6-5-2.4 1.5-3.5 8.3 0 9z"/></svg>